<mxfile host="app.diagrams.net" agent="Mozilla/5.0 (X11; Linux x86_64) AppleWebKit/537.36 (KHTML, like Gecko) Chrome/141.0.0.0 Safari/537.36" version="28.2.5">
  <diagram name="PÃ¡gina-1" id="qy8aETbDRmkv0HUQfHBe">
    <mxGraphModel dx="2994" dy="2069" grid="0" gridSize="10" guides="1" tooltips="1" connect="1" arrows="1" fold="1" page="0" pageScale="1" pageWidth="827" pageHeight="1169" background="#ffffff" math="0" shadow="0" adaptiveColors="none">
      <root>
        <mxCell id="0" />
        <mxCell id="1" parent="0" />
        <mxCell id="rJF-KQS_uxcIbHA2Nqqv-1" value="Actor" style="shape=umlActor;verticalLabelPosition=bottom;verticalAlign=top;html=1;outlineConnect=0;" parent="1" vertex="1">
          <mxGeometry x="147" y="-509" width="50" height="85" as="geometry" />
        </mxCell>
        <mxCell id="rJF-KQS_uxcIbHA2Nqqv-2" value="Block" style="verticalAlign=top;align=left;spacingTop=8;spacingLeft=2;spacingRight=12;shape=cube;size=10;direction=south;fontStyle=4;html=1;whiteSpace=wrap;" parent="1" vertex="1">
          <mxGeometry x="-323" y="-512" width="290" height="113" as="geometry" />
        </mxCell>
        <mxCell id="rJF-KQS_uxcIbHA2Nqqv-3" value="Backend (Springboot)" style="verticalAlign=top;align=left;spacingTop=8;spacingLeft=2;spacingRight=12;shape=cube;size=10;direction=south;fontStyle=4;html=1;whiteSpace=wrap;" parent="1" vertex="1">
          <mxGeometry x="-709" y="-273" width="741" height="448" as="geometry" />
        </mxCell>
        <mxCell id="rJF-KQS_uxcIbHA2Nqqv-4" value="DataBase" style="verticalAlign=top;align=left;spacingTop=8;spacingLeft=2;spacingRight=12;shape=cube;size=10;direction=south;fontStyle=4;html=1;whiteSpace=wrap;" parent="1" vertex="1">
          <mxGeometry x="167" y="-183.5" width="150" height="165" as="geometry" />
        </mxCell>
        <mxCell id="rJF-KQS_uxcIbHA2Nqqv-5" value="MySQL" style="shape=cylinder3;whiteSpace=wrap;html=1;boundedLbl=1;backgroundOutline=1;size=15;" parent="1" vertex="1">
          <mxGeometry x="212" y="-141" width="60" height="80" as="geometry" />
        </mxCell>
        <mxCell id="rJF-KQS_uxcIbHA2Nqqv-6" value="&lt;pre style=&quot;font-family: &amp;quot;JetBrains Mono&amp;quot;, monospace;&quot;&gt;&lt;div style=&quot;line-height: 30%;&quot;&gt;&lt;pre style=&quot;font-family:&#39;JetBrains Mono&#39;,monospace;font-size:12,0pt;&quot;&gt;&lt;font style=&quot;font-size: 11px; line-height: 30%;&quot;&gt;ArepTaller6&lt;/font&gt;&lt;/pre&gt;&lt;pre style=&quot;font-family:&#39;JetBrains Mono&#39;,monospace;font-size:12,0pt;&quot;&gt;&lt;font style=&quot;font-size: 11px; line-height: 30%;&quot;&gt;SecureApplication&lt;/font&gt;&lt;/pre&gt;&lt;pre style=&quot;font-family:&#39;JetBrains Mono&#39;,monospace;font-size:12,0pt;&quot;&gt;&lt;font style=&quot;font-size: 11px; line-height: 30%;&quot;&gt;Design&lt;/font&gt;&lt;/pre&gt;&lt;/div&gt;&lt;/pre&gt;" style="shape=module;align=left;spacingLeft=20;align=center;verticalAlign=top;whiteSpace=wrap;html=1;labelBackgroundColor=none;fontColor=#000000;" parent="1" vertex="1">
          <mxGeometry x="-686" y="88" width="150" height="66" as="geometry" />
        </mxCell>
        <mxCell id="rJF-KQS_uxcIbHA2Nqqv-25" style="edgeStyle=orthogonalEdgeStyle;rounded=0;orthogonalLoop=1;jettySize=auto;html=1;entryX=0.5;entryY=0;entryDx=0;entryDy=0;dashed=1;" parent="1" source="rJF-KQS_uxcIbHA2Nqqv-7" target="rJF-KQS_uxcIbHA2Nqqv-11" edge="1">
          <mxGeometry relative="1" as="geometry">
            <Array as="points">
              <mxPoint x="-644" y="-134" />
            </Array>
          </mxGeometry>
        </mxCell>
        <mxCell id="rJF-KQS_uxcIbHA2Nqqv-7" value="Properties&lt;br&gt;Controller" style="shape=module;align=left;spacingLeft=20;align=center;verticalAlign=top;whiteSpace=wrap;html=1;" parent="1" vertex="1">
          <mxGeometry x="-633" y="-151" width="100" height="50" as="geometry" />
        </mxCell>
        <mxCell id="rJF-KQS_uxcIbHA2Nqqv-26" style="edgeStyle=orthogonalEdgeStyle;rounded=0;orthogonalLoop=1;jettySize=auto;html=1;entryX=0.5;entryY=0;entryDx=0;entryDy=0;dashed=1;" parent="1" source="rJF-KQS_uxcIbHA2Nqqv-8" target="rJF-KQS_uxcIbHA2Nqqv-10" edge="1">
          <mxGeometry relative="1" as="geometry" />
        </mxCell>
        <mxCell id="rJF-KQS_uxcIbHA2Nqqv-8" value="Properties&lt;br&gt;Repository" style="shape=module;align=left;spacingLeft=20;align=center;verticalAlign=top;whiteSpace=wrap;html=1;" parent="1" vertex="1">
          <mxGeometry x="-419" y="19" width="100" height="50" as="geometry" />
        </mxCell>
        <mxCell id="rJF-KQS_uxcIbHA2Nqqv-9" value="Properties&lt;br&gt;Service" style="shape=module;align=left;spacingLeft=20;align=center;verticalAlign=top;whiteSpace=wrap;html=1;" parent="1" vertex="1">
          <mxGeometry x="-554" y="19" width="100" height="50" as="geometry" />
        </mxCell>
        <mxCell id="rJF-KQS_uxcIbHA2Nqqv-10" value="Properties&lt;div&gt;&lt;br&gt;&lt;/div&gt;" style="shape=module;align=left;spacingLeft=20;align=center;verticalAlign=top;whiteSpace=wrap;html=1;" parent="1" vertex="1">
          <mxGeometry x="-419" y="109" width="100" height="50" as="geometry" />
        </mxCell>
        <mxCell id="rJF-KQS_uxcIbHA2Nqqv-11" value="PropertiesDto" style="shape=module;align=left;spacingLeft=20;align=center;verticalAlign=top;whiteSpace=wrap;html=1;" parent="1" vertex="1">
          <mxGeometry x="-694" y="-74" width="100" height="50" as="geometry" />
        </mxCell>
        <mxCell id="47wqLZB-2nM1nMPdiY8--1" style="edgeStyle=orthogonalEdgeStyle;rounded=0;orthogonalLoop=1;jettySize=auto;html=1;" edge="1" parent="1" source="rJF-KQS_uxcIbHA2Nqqv-12" target="rJF-KQS_uxcIbHA2Nqqv-13">
          <mxGeometry relative="1" as="geometry" />
        </mxCell>
        <mxCell id="47wqLZB-2nM1nMPdiY8--15" style="edgeStyle=orthogonalEdgeStyle;rounded=0;orthogonalLoop=1;jettySize=auto;html=1;exitX=0.5;exitY=1;exitDx=0;exitDy=0;entryX=0.75;entryY=0;entryDx=0;entryDy=0;" edge="1" parent="1" source="rJF-KQS_uxcIbHA2Nqqv-12" target="47wqLZB-2nM1nMPdiY8--14">
          <mxGeometry relative="1" as="geometry" />
        </mxCell>
        <mxCell id="rJF-KQS_uxcIbHA2Nqqv-12" value="AUTH&lt;br&gt;&lt;br&gt;(html, css, js)" style="shape=module;align=left;spacingLeft=20;align=center;verticalAlign=top;whiteSpace=wrap;html=1;" parent="1" vertex="1">
          <mxGeometry x="-167" y="-476" width="100" height="50" as="geometry" />
        </mxCell>
        <mxCell id="rJF-KQS_uxcIbHA2Nqqv-19" style="edgeStyle=orthogonalEdgeStyle;rounded=0;orthogonalLoop=1;jettySize=auto;html=1;exitX=0.5;exitY=1;exitDx=0;exitDy=0;entryX=0.75;entryY=0;entryDx=0;entryDy=0;" parent="1" source="rJF-KQS_uxcIbHA2Nqqv-13" target="47wqLZB-2nM1nMPdiY8--14" edge="1">
          <mxGeometry relative="1" as="geometry">
            <Array as="points">
              <mxPoint x="-255" y="-351" />
              <mxPoint x="-335" y="-351" />
            </Array>
            <mxPoint x="-478" y="-424" as="sourcePoint" />
          </mxGeometry>
        </mxCell>
        <mxCell id="rJF-KQS_uxcIbHA2Nqqv-20" value="Peticiones Rest en HTTPS" style="edgeLabel;html=1;align=center;verticalAlign=middle;resizable=0;points=[];" parent="rJF-KQS_uxcIbHA2Nqqv-19" vertex="1" connectable="0">
          <mxGeometry x="-0.1025" y="1" relative="1" as="geometry">
            <mxPoint x="76" y="26" as="offset" />
          </mxGeometry>
        </mxCell>
        <mxCell id="rJF-KQS_uxcIbHA2Nqqv-13" value="PROPERTY&lt;div&gt;&lt;br&gt;&lt;/div&gt;&lt;div&gt;(html, css, js)&lt;/div&gt;" style="shape=module;align=left;spacingLeft=20;align=center;verticalAlign=top;whiteSpace=wrap;html=1;" parent="1" vertex="1">
          <mxGeometry x="-305" y="-476" width="100" height="50" as="geometry" />
        </mxCell>
        <mxCell id="rJF-KQS_uxcIbHA2Nqqv-21" style="edgeStyle=orthogonalEdgeStyle;rounded=0;orthogonalLoop=1;jettySize=auto;html=1;entryX=0.5;entryY=0;entryDx=0;entryDy=0;" parent="1" source="rJF-KQS_uxcIbHA2Nqqv-7" target="rJF-KQS_uxcIbHA2Nqqv-9" edge="1">
          <mxGeometry relative="1" as="geometry">
            <Array as="points">
              <mxPoint x="-496" y="-126" />
              <mxPoint x="-496" y="-22" />
              <mxPoint x="-504" y="-22" />
            </Array>
          </mxGeometry>
        </mxCell>
        <mxCell id="rJF-KQS_uxcIbHA2Nqqv-22" style="edgeStyle=orthogonalEdgeStyle;rounded=0;orthogonalLoop=1;jettySize=auto;html=1;entryX=0;entryY=0;entryDx=0;entryDy=35;entryPerimeter=0;" parent="1" source="rJF-KQS_uxcIbHA2Nqqv-9" target="rJF-KQS_uxcIbHA2Nqqv-8" edge="1">
          <mxGeometry relative="1" as="geometry" />
        </mxCell>
        <mxCell id="rJF-KQS_uxcIbHA2Nqqv-23" style="edgeStyle=orthogonalEdgeStyle;rounded=0;orthogonalLoop=1;jettySize=auto;html=1;entryX=0.992;entryY=0.567;entryDx=0;entryDy=0;entryPerimeter=0;" parent="1" source="rJF-KQS_uxcIbHA2Nqqv-8" target="rJF-KQS_uxcIbHA2Nqqv-4" edge="1">
          <mxGeometry relative="1" as="geometry">
            <mxPoint x="-33" y="-92" as="targetPoint" />
            <Array as="points">
              <mxPoint x="-132" y="44" />
              <mxPoint x="-132" y="115" />
              <mxPoint x="232" y="115" />
            </Array>
          </mxGeometry>
        </mxCell>
        <mxCell id="rJF-KQS_uxcIbHA2Nqqv-24" value="Consultas del CRUD&lt;br&gt;(3306)" style="edgeLabel;html=1;align=center;verticalAlign=middle;resizable=0;points=[];" parent="rJF-KQS_uxcIbHA2Nqqv-23" vertex="1" connectable="0">
          <mxGeometry x="0.2519" relative="1" as="geometry">
            <mxPoint x="41" y="19" as="offset" />
          </mxGeometry>
        </mxCell>
        <mxCell id="rJF-KQS_uxcIbHA2Nqqv-27" style="edgeStyle=orthogonalEdgeStyle;rounded=0;orthogonalLoop=1;jettySize=auto;html=1;entryX=0;entryY=0;entryDx=0;entryDy=15;entryPerimeter=0;dashed=1;" parent="1" source="rJF-KQS_uxcIbHA2Nqqv-9" target="rJF-KQS_uxcIbHA2Nqqv-10" edge="1">
          <mxGeometry relative="1" as="geometry">
            <Array as="points">
              <mxPoint x="-499" y="121" />
            </Array>
          </mxGeometry>
        </mxCell>
        <mxCell id="rJF-KQS_uxcIbHA2Nqqv-29" value="com.edu.eci.arep.ArepTaller5CRUDSystem" style="shape=folder;fontStyle=1;spacingTop=10;tabWidth=50;tabHeight=20;tabPosition=left;whiteSpace=wrap;align=center;connectable=1;noLabel=0;labelPadding=0;portConstraintRotation=0;html=1;convertToSvg=0;labelPosition=center;verticalLabelPosition=top;verticalAlign=bottom;textDirection=ltr;" parent="1" vertex="1">
          <mxGeometry x="-234" y="290" width="1689" height="1195" as="geometry" />
        </mxCell>
        <mxCell id="rJF-KQS_uxcIbHA2Nqqv-34" value="Model" style="shape=folder;fontStyle=1;spacingTop=10;tabWidth=40;tabHeight=14;tabPosition=left;html=1;whiteSpace=wrap;labelPosition=center;verticalLabelPosition=bottom;align=center;verticalAlign=top;" parent="1" vertex="1">
          <mxGeometry x="-123" y="583" width="454" height="365.5" as="geometry" />
        </mxCell>
        <mxCell id="rJF-KQS_uxcIbHA2Nqqv-30" value="DTO" style="shape=folder;fontStyle=1;spacingTop=10;tabWidth=40;tabHeight=14;tabPosition=left;html=1;whiteSpace=wrap;labelPosition=center;verticalLabelPosition=bottom;align=center;verticalAlign=top;" parent="1" vertex="1">
          <mxGeometry x="127" y="623.5" width="180" height="285" as="geometry" />
        </mxCell>
        <mxCell id="rJF-KQS_uxcIbHA2Nqqv-47" style="edgeStyle=orthogonalEdgeStyle;rounded=0;orthogonalLoop=1;jettySize=auto;html=1;" parent="1" source="rJF-KQS_uxcIbHA2Nqqv-31" target="rJF-KQS_uxcIbHA2Nqqv-33" edge="1">
          <mxGeometry relative="1" as="geometry" />
        </mxCell>
        <mxCell id="rJF-KQS_uxcIbHA2Nqqv-31" value="&lt;div style=&quot;&quot;&gt;&lt;pre style=&quot;text-align: center; font-family: &amp;quot;JetBrains Mono&amp;quot;, monospace;&quot;&gt;PropertiesDto&lt;/pre&gt;&lt;/div&gt;&lt;hr style=&quot;border-style:solid;&quot; size=&quot;1&quot;&gt;&lt;p style=&quot;margin:0px;margin-left:4px;&quot;&gt;&lt;span style=&quot;background-color: transparent; color: light-dark(rgb(0, 0, 0), rgb(237, 237, 237));&quot;&gt;-&amp;nbsp;&lt;/span&gt;&lt;span style=&quot;font-family: &amp;quot;JetBrains Mono&amp;quot;, monospace;&quot;&gt;address&lt;/span&gt;&lt;span style=&quot;background-color: transparent; color: light-dark(rgb(0, 0, 0), rgb(237, 237, 237));&quot;&gt;:&amp;nbsp;&lt;/span&gt;&lt;span style=&quot;font-family: &amp;quot;JetBrains Mono&amp;quot;, monospace; background-color: transparent; color: light-dark(rgb(0, 0, 0), rgb(237, 237, 237));&quot;&gt;String&lt;/span&gt;&lt;/p&gt;&lt;p style=&quot;margin: 0px 0px 0px 4px;&quot;&gt;-&amp;nbsp;&lt;span style=&quot;font-family: &amp;quot;JetBrains Mono&amp;quot;, monospace;&quot;&gt;price&lt;/span&gt;:&amp;nbsp;&lt;span style=&quot;font-family: &amp;quot;JetBrains Mono&amp;quot;, monospace; background-color: transparent; color: light-dark(rgb(0, 0, 0), rgb(237, 237, 237));&quot;&gt;Double&lt;/span&gt;&lt;/p&gt;&lt;p style=&quot;margin: 0px 0px 0px 4px;&quot;&gt;-&amp;nbsp;&lt;span style=&quot;font-family: &amp;quot;JetBrains Mono&amp;quot;, monospace;&quot;&gt;size&lt;/span&gt;:&amp;nbsp;&lt;span style=&quot;font-family: &amp;quot;JetBrains Mono&amp;quot;, monospace; background-color: transparent; color: light-dark(rgb(0, 0, 0), rgb(237, 237, 237));&quot;&gt;Double&lt;/span&gt;&lt;/p&gt;&lt;p style=&quot;margin: 0px 0px 0px 4px;&quot;&gt;-&amp;nbsp;&lt;span style=&quot;font-family: &amp;quot;JetBrains Mono&amp;quot;, monospace;&quot;&gt;description&lt;/span&gt;:&amp;nbsp;&lt;span style=&quot;font-family: &amp;quot;JetBrains Mono&amp;quot;, monospace; background-color: transparent; color: light-dark(rgb(0, 0, 0), rgb(237, 237, 237));&quot;&gt;String&lt;/span&gt;&lt;/p&gt;&lt;hr style=&quot;border-style:solid;&quot; size=&quot;1&quot;&gt;&lt;p style=&quot;margin:0px;margin-left:4px;&quot;&gt;&lt;br&gt;&lt;/p&gt;" style="verticalAlign=top;align=left;overflow=fill;html=1;whiteSpace=wrap;labelBackgroundColor=none;labelBorderColor=none;fontColor=#000000;" parent="1" vertex="1">
          <mxGeometry x="147" y="645.5" width="144" height="120" as="geometry" />
        </mxCell>
        <mxCell id="rJF-KQS_uxcIbHA2Nqqv-33" value="&lt;div style=&quot;&quot;&gt;&lt;pre style=&quot;text-align: center; font-family: &amp;quot;JetBrains Mono&amp;quot;, monospace;&quot;&gt;Properties&lt;/pre&gt;&lt;/div&gt;&lt;hr style=&quot;border-style:solid;&quot; size=&quot;1&quot;&gt;&lt;p style=&quot;margin:0px;margin-left:4px;&quot;&gt;- id:&amp;nbsp;&lt;span style=&quot;font-family: &amp;quot;JetBrains Mono&amp;quot;, monospace;&quot;&gt;Long&lt;/span&gt;&lt;/p&gt;&lt;p style=&quot;margin: 0px 0px 0px 4px;&quot;&gt;&lt;span style=&quot;background-color: transparent; color: light-dark(rgb(0, 0, 0), rgb(237, 237, 237));&quot;&gt;-&amp;nbsp;&lt;/span&gt;&lt;span style=&quot;font-family: &amp;quot;JetBrains Mono&amp;quot;, monospace;&quot;&gt;address&lt;/span&gt;&lt;span style=&quot;background-color: transparent; color: light-dark(rgb(0, 0, 0), rgb(237, 237, 237));&quot;&gt;:&amp;nbsp;&lt;/span&gt;&lt;span style=&quot;font-family: &amp;quot;JetBrains Mono&amp;quot;, monospace; background-color: transparent; color: light-dark(rgb(0, 0, 0), rgb(237, 237, 237));&quot;&gt;String&lt;/span&gt;&lt;/p&gt;&lt;p style=&quot;margin: 0px 0px 0px 4px;&quot;&gt;-&amp;nbsp;&lt;span style=&quot;font-family: &amp;quot;JetBrains Mono&amp;quot;, monospace;&quot;&gt;price&lt;/span&gt;:&amp;nbsp;&lt;span style=&quot;font-family: &amp;quot;JetBrains Mono&amp;quot;, monospace; background-color: transparent; color: light-dark(rgb(0, 0, 0), rgb(237, 237, 237));&quot;&gt;Double&lt;/span&gt;&lt;/p&gt;&lt;p style=&quot;margin: 0px 0px 0px 4px;&quot;&gt;-&amp;nbsp;&lt;span style=&quot;font-family: &amp;quot;JetBrains Mono&amp;quot;, monospace;&quot;&gt;size&lt;/span&gt;:&amp;nbsp;&lt;span style=&quot;font-family: &amp;quot;JetBrains Mono&amp;quot;, monospace; background-color: transparent; color: light-dark(rgb(0, 0, 0), rgb(237, 237, 237));&quot;&gt;Double&lt;/span&gt;&lt;/p&gt;&lt;p style=&quot;margin: 0px 0px 0px 4px;&quot;&gt;-&amp;nbsp;&lt;span style=&quot;font-family: &amp;quot;JetBrains Mono&amp;quot;, monospace;&quot;&gt;description&lt;/span&gt;:&amp;nbsp;&lt;span style=&quot;font-family: &amp;quot;JetBrains Mono&amp;quot;, monospace; background-color: transparent; color: light-dark(rgb(0, 0, 0), rgb(237, 237, 237));&quot;&gt;String&lt;/span&gt;&lt;/p&gt;&lt;hr style=&quot;border-style:solid;&quot; size=&quot;1&quot;&gt;&lt;p style=&quot;margin:0px;margin-left:4px;&quot;&gt;+ toString(): String&lt;/p&gt;" style="verticalAlign=top;align=left;overflow=fill;html=1;whiteSpace=wrap;labelBackgroundColor=none;labelBorderColor=none;fontColor=#000000;" parent="1" vertex="1">
          <mxGeometry x="-93" y="630.5" width="160" height="150" as="geometry" />
        </mxCell>
        <mxCell id="rJF-KQS_uxcIbHA2Nqqv-35" value="Repository" style="shape=folder;fontStyle=1;spacingTop=10;tabWidth=40;tabHeight=14;tabPosition=left;html=1;whiteSpace=wrap;labelPosition=center;verticalLabelPosition=top;align=center;verticalAlign=bottom;" parent="1" vertex="1">
          <mxGeometry x="638.5" y="1142" width="635" height="193" as="geometry" />
        </mxCell>
        <mxCell id="rJF-KQS_uxcIbHA2Nqqv-49" style="edgeStyle=orthogonalEdgeStyle;rounded=0;orthogonalLoop=1;jettySize=auto;html=1;entryX=0;entryY=0.5;entryDx=0;entryDy=0;dashed=1;" parent="1" source="rJF-KQS_uxcIbHA2Nqqv-32" target="rJF-KQS_uxcIbHA2Nqqv-33" edge="1">
          <mxGeometry relative="1" as="geometry">
            <Array as="points">
              <mxPoint x="-196" y="1227" />
              <mxPoint x="-196" y="706" />
            </Array>
          </mxGeometry>
        </mxCell>
        <mxCell id="rJF-KQS_uxcIbHA2Nqqv-32" value="&lt;p style=&quot;margin:0px;margin-top:4px;text-align:center;&quot;&gt;&lt;i&gt;&amp;lt;&amp;lt;Interface&amp;gt;&amp;gt;&lt;/i&gt;&lt;br&gt;&lt;/p&gt;&lt;div style=&quot;&quot;&gt;&lt;pre style=&quot;text-align: center; font-family: &amp;quot;JetBrains Mono&amp;quot;, monospace;&quot;&gt;PropertiesRepository&lt;/pre&gt;&lt;/div&gt;&lt;hr style=&quot;border-style:solid;&quot; size=&quot;1&quot;&gt;&lt;p style=&quot;margin:0px;margin-left:4px;&quot;&gt;&lt;font&gt;&lt;br&gt;&lt;/font&gt;&lt;/p&gt;&lt;hr style=&quot;border-style:solid;&quot; size=&quot;1&quot;&gt;&lt;p style=&quot;margin:0px;margin-left:4px;&quot;&gt;&lt;br&gt;&lt;/p&gt;" style="verticalAlign=top;align=left;overflow=fill;html=1;whiteSpace=wrap;labelBackgroundColor=none;fontColor=default;" parent="1" vertex="1">
          <mxGeometry x="658.5" y="1177" width="165" height="100" as="geometry" />
        </mxCell>
        <mxCell id="rJF-KQS_uxcIbHA2Nqqv-36" value="Service" style="shape=folder;fontStyle=1;spacingTop=10;tabWidth=40;tabHeight=14;tabPosition=left;html=1;whiteSpace=wrap;labelPosition=center;verticalLabelPosition=bottom;align=center;verticalAlign=top;" parent="1" vertex="1">
          <mxGeometry x="489" y="794" width="934" height="233" as="geometry" />
        </mxCell>
        <mxCell id="rJF-KQS_uxcIbHA2Nqqv-41" style="edgeStyle=orthogonalEdgeStyle;rounded=0;orthogonalLoop=1;jettySize=auto;html=1;" parent="1" source="rJF-KQS_uxcIbHA2Nqqv-37" target="rJF-KQS_uxcIbHA2Nqqv-32" edge="1">
          <mxGeometry relative="1" as="geometry">
            <Array as="points">
              <mxPoint x="775" y="1084" />
              <mxPoint x="741" y="1084" />
            </Array>
          </mxGeometry>
        </mxCell>
        <mxCell id="rJF-KQS_uxcIbHA2Nqqv-52" value="&lt;div&gt;&lt;pre style=&quot;font-family:&#39;JetBrains Mono&#39;,monospace;font-size:9,8pt;&quot;&gt;PropertiesRepository &lt;span&gt;propertyRepository&lt;/span&gt;&lt;/pre&gt;&lt;/div&gt;" style="edgeLabel;html=1;align=center;verticalAlign=middle;resizable=0;points=[];labelBackgroundColor=none;fontColor=default;fontSize=9;" parent="rJF-KQS_uxcIbHA2Nqqv-41" vertex="1" connectable="0">
          <mxGeometry x="0.1409" relative="1" as="geometry">
            <mxPoint x="13" y="-8" as="offset" />
          </mxGeometry>
        </mxCell>
        <mxCell id="rJF-KQS_uxcIbHA2Nqqv-46" style="edgeStyle=orthogonalEdgeStyle;rounded=0;orthogonalLoop=1;jettySize=auto;html=1;exitX=0.48;exitY=-0.002;exitDx=0;exitDy=0;entryX=0.5;entryY=0;entryDx=0;entryDy=0;exitPerimeter=0;" parent="1" source="rJF-KQS_uxcIbHA2Nqqv-37" target="rJF-KQS_uxcIbHA2Nqqv-33" edge="1">
          <mxGeometry relative="1" as="geometry">
            <Array as="points">
              <mxPoint x="544" y="835" />
              <mxPoint x="544" y="574" />
              <mxPoint x="-13" y="574" />
            </Array>
          </mxGeometry>
        </mxCell>
        <mxCell id="rJF-KQS_uxcIbHA2Nqqv-48" style="edgeStyle=orthogonalEdgeStyle;rounded=0;orthogonalLoop=1;jettySize=auto;html=1;" parent="1" source="rJF-KQS_uxcIbHA2Nqqv-37" target="rJF-KQS_uxcIbHA2Nqqv-31" edge="1">
          <mxGeometry relative="1" as="geometry">
            <Array as="points">
              <mxPoint x="431" y="915" />
              <mxPoint x="431" y="729" />
            </Array>
          </mxGeometry>
        </mxCell>
        <mxCell id="rJF-KQS_uxcIbHA2Nqqv-37" value="&lt;div&gt;&lt;pre style=&quot;text-align: center; font-family: &amp;quot;JetBrains Mono&amp;quot;, monospace;&quot;&gt;&lt;span style=&quot;&quot;&gt;&lt;font&gt;PropertiesService&lt;/font&gt;&lt;/span&gt;&lt;/pre&gt;&lt;/div&gt;&lt;hr style=&quot;border-style:solid;&quot; size=&quot;1&quot;&gt;&lt;p style=&quot;margin:0px;margin-left:4px;&quot;&gt;&lt;span style=&quot;&quot;&gt;&lt;font&gt;&lt;br&gt;&lt;/font&gt;&lt;/span&gt;&lt;/p&gt;&lt;hr style=&quot;border-style:solid;&quot; size=&quot;1&quot;&gt;&lt;p style=&quot;margin:0px;margin-left:4px;&quot;&gt;&lt;span style=&quot;&quot;&gt;&lt;font&gt;+&amp;nbsp;&lt;span style=&quot;font-family: &amp;quot;JetBrains Mono&amp;quot;, monospace;&quot;&gt;createProperties&lt;/span&gt;(&lt;span style=&quot;font-family: &amp;quot;JetBrains Mono&amp;quot;, monospace;&quot;&gt;PropertiesDto&lt;/span&gt;):&amp;nbsp;&lt;span style=&quot;font-family: &amp;quot;JetBrains Mono&amp;quot;, monospace;&quot;&gt;Properties&lt;/span&gt;&lt;/font&gt;&lt;/span&gt;&lt;/p&gt;&lt;p style=&quot;margin:0px;margin-left:4px;&quot;&gt;&lt;span style=&quot;&quot;&gt;&lt;font&gt;&lt;span style=&quot;font-family: &amp;quot;JetBrains Mono&amp;quot;, monospace;&quot;&gt;&lt;span style=&quot;font-family: Helvetica;&quot;&gt;+&amp;nbsp;&lt;/span&gt;&lt;/span&gt;&lt;span style=&quot;font-family: &amp;quot;JetBrains Mono&amp;quot;, monospace;&quot;&gt;getProperties&lt;/span&gt;(): List&amp;lt;&lt;span style=&quot;font-family: &amp;quot;JetBrains Mono&amp;quot;, monospace;&quot;&gt;Properties&amp;gt;&lt;/span&gt;&lt;/font&gt;&lt;/span&gt;&lt;/p&gt;&lt;p style=&quot;margin:0px;margin-left:4px;&quot;&gt;&lt;span style=&quot;&quot;&gt;&lt;font&gt;&lt;span style=&quot;font-family: &amp;quot;JetBrains Mono&amp;quot;, monospace;&quot;&gt;&lt;span style=&quot;&quot;&gt;&lt;span style=&quot;font-family: Helvetica;&quot;&gt;+&amp;nbsp;&lt;/span&gt;&lt;/span&gt;&lt;/span&gt;&lt;span style=&quot;font-family: &amp;quot;JetBrains Mono&amp;quot;, monospace;&quot;&gt;getPropertiesById&lt;/span&gt;(&lt;span style=&quot;font-family: &amp;quot;JetBrains Mono&amp;quot;, monospace;&quot;&gt;Long&lt;/span&gt;):&amp;nbsp;&lt;span style=&quot;font-family: &amp;quot;JetBrains Mono&amp;quot;, monospace;&quot;&gt;Properties&lt;/span&gt;&lt;/font&gt;&lt;/span&gt;&lt;/p&gt;&lt;p style=&quot;margin:0px;margin-left:4px;&quot;&gt;&lt;span style=&quot;&quot;&gt;&lt;font&gt;&lt;span style=&quot;font-family: &amp;quot;JetBrains Mono&amp;quot;, monospace;&quot;&gt;&lt;span style=&quot;&quot;&gt;&lt;span style=&quot;&quot;&gt;&lt;span style=&quot;font-family: Helvetica;&quot;&gt;+&amp;nbsp;&lt;/span&gt;&lt;/span&gt;&lt;/span&gt;&lt;/span&gt;&lt;span style=&quot;font-family: &amp;quot;JetBrains Mono&amp;quot;, monospace;&quot;&gt;updateProperties&lt;/span&gt;(Long,&amp;nbsp;&lt;span style=&quot;font-family: &amp;quot;JetBrains Mono&amp;quot;, monospace;&quot;&gt;PropertiesDto&lt;/span&gt;):&amp;nbsp;&lt;span style=&quot;font-family: &amp;quot;JetBrains Mono&amp;quot;, monospace;&quot;&gt;Properties&lt;/span&gt;&lt;/font&gt;&lt;/span&gt;&lt;/p&gt;&lt;p style=&quot;margin:0px;margin-left:4px;&quot;&gt;&lt;span style=&quot;&quot;&gt;&lt;font&gt;&lt;span style=&quot;font-family: &amp;quot;JetBrains Mono&amp;quot;, monospace;&quot;&gt;&lt;span style=&quot;&quot;&gt;&lt;span style=&quot;&quot;&gt;&lt;span style=&quot;&quot;&gt;&lt;span style=&quot;font-family: Helvetica;&quot;&gt;+&amp;nbsp;&lt;/span&gt;&lt;/span&gt;&lt;/span&gt;&lt;/span&gt;&lt;/span&gt;&lt;span style=&quot;font-family: &amp;quot;JetBrains Mono&amp;quot;, monospace;&quot;&gt;deleteProperties&lt;/span&gt;(&lt;span style=&quot;font-family: &amp;quot;JetBrains Mono&amp;quot;, monospace;&quot;&gt;Long&lt;/span&gt;):&amp;nbsp;&lt;span style=&quot;font-family: &amp;quot;JetBrains Mono&amp;quot;, monospace;&quot;&gt;void&lt;/span&gt;&lt;/font&gt;&lt;/span&gt;&lt;/p&gt;" style="verticalAlign=top;align=left;overflow=fill;html=1;whiteSpace=wrap;labelBackgroundColor=none;fontColor=default;" parent="1" vertex="1">
          <mxGeometry x="526" y="835" width="335" height="160" as="geometry" />
        </mxCell>
        <mxCell id="rJF-KQS_uxcIbHA2Nqqv-38" value="Controller" style="shape=folder;fontStyle=1;spacingTop=10;tabWidth=40;tabHeight=14;tabPosition=left;html=1;whiteSpace=wrap;labelPosition=center;verticalLabelPosition=top;align=center;verticalAlign=bottom;" parent="1" vertex="1">
          <mxGeometry x="578" y="398" width="756" height="229" as="geometry" />
        </mxCell>
        <mxCell id="rJF-KQS_uxcIbHA2Nqqv-40" style="edgeStyle=orthogonalEdgeStyle;rounded=0;orthogonalLoop=1;jettySize=auto;html=1;" parent="1" source="rJF-KQS_uxcIbHA2Nqqv-39" target="rJF-KQS_uxcIbHA2Nqqv-37" edge="1">
          <mxGeometry relative="1" as="geometry">
            <Array as="points">
              <mxPoint x="852" y="685" />
              <mxPoint x="783" y="685" />
            </Array>
          </mxGeometry>
        </mxCell>
        <mxCell id="rJF-KQS_uxcIbHA2Nqqv-50" value="&lt;div style=&quot;&quot;&gt;&lt;pre style=&quot;font-family:&#39;JetBrains Mono&#39;,monospace;font-size:9,8pt;&quot;&gt;&lt;font style=&quot;font-size: 9px;&quot;&gt;PropertiesService &lt;span style=&quot;&quot;&gt;propertiesService&lt;/span&gt;&lt;/font&gt;&lt;/pre&gt;&lt;/div&gt;" style="edgeLabel;html=1;align=center;verticalAlign=middle;resizable=0;points=[];labelBackgroundColor=none;fontColor=default;" parent="rJF-KQS_uxcIbHA2Nqqv-40" vertex="1" connectable="0">
          <mxGeometry x="0.1358" y="3" relative="1" as="geometry">
            <mxPoint x="91" y="9" as="offset" />
          </mxGeometry>
        </mxCell>
        <mxCell id="rJF-KQS_uxcIbHA2Nqqv-39" value="&lt;div style=&quot;&quot;&gt;&lt;pre style=&quot;text-align: center; font-family: &amp;quot;JetBrains Mono&amp;quot;, monospace;&quot;&gt;PropertiesController&lt;/pre&gt;&lt;/div&gt;&lt;hr style=&quot;text-align: center; border-style: solid;&quot; size=&quot;1&quot;&gt;&lt;p style=&quot;margin:0px;margin-left:4px;&quot;&gt;&lt;br&gt;&lt;/p&gt;&lt;hr style=&quot;border-style:solid;&quot; size=&quot;1&quot;&gt;&lt;hr size=&quot;1&quot; style=&quot;border-style: solid;&quot;&gt;&lt;p style=&quot;margin: 0px 0px 0px 4px;&quot;&gt;+&amp;nbsp;&lt;span style=&quot;font-family: &amp;quot;JetBrains Mono&amp;quot;, monospace;&quot;&gt;createProperties&lt;/span&gt;(&lt;span style=&quot;font-family: &amp;quot;JetBrains Mono&amp;quot;, monospace;&quot;&gt;PropertiesDto&lt;/span&gt;):&amp;nbsp;&lt;span style=&quot;font-family: &amp;quot;JetBrains Mono&amp;quot;, monospace;&quot;&gt;Properties&lt;/span&gt;&lt;/p&gt;&lt;p style=&quot;margin: 0px 0px 0px 4px;&quot;&gt;&lt;span style=&quot;font-family: &amp;quot;JetBrains Mono&amp;quot;, monospace;&quot;&gt;&lt;span style=&quot;font-family: Helvetica;&quot;&gt;+&amp;nbsp;&lt;/span&gt;&lt;/span&gt;&lt;span style=&quot;font-family: &amp;quot;JetBrains Mono&amp;quot;, monospace;&quot;&gt;findProperties&lt;/span&gt;&lt;span style=&quot;&quot;&gt;(): List&amp;lt;&lt;/span&gt;&lt;span style=&quot;font-family: &amp;quot;JetBrains Mono&amp;quot;, monospace;&quot;&gt;Properties&amp;gt;&lt;/span&gt;&lt;/p&gt;&lt;p style=&quot;margin: 0px 0px 0px 4px;&quot;&gt;&lt;span style=&quot;font-family: &amp;quot;JetBrains Mono&amp;quot;, monospace;&quot;&gt;&lt;span style=&quot;font-family: Helvetica;&quot;&gt;+&amp;nbsp;&lt;/span&gt;&lt;/span&gt;&lt;span style=&quot;font-family: &amp;quot;JetBrains Mono&amp;quot;, monospace;&quot;&gt;findPropertiesById&lt;/span&gt;&lt;span style=&quot;&quot;&gt;(&lt;/span&gt;&lt;span style=&quot;font-family: &amp;quot;JetBrains Mono&amp;quot;, monospace;&quot;&gt;Long&lt;/span&gt;&lt;span style=&quot;&quot;&gt;):&amp;nbsp;&lt;/span&gt;&lt;span style=&quot;font-family: &amp;quot;JetBrains Mono&amp;quot;, monospace;&quot;&gt;Properties&lt;/span&gt;&lt;/p&gt;&lt;p style=&quot;margin: 0px 0px 0px 4px;&quot;&gt;&lt;span style=&quot;font-family: &amp;quot;JetBrains Mono&amp;quot;, monospace;&quot;&gt;&lt;span style=&quot;font-family: Helvetica;&quot;&gt;+&amp;nbsp;&lt;/span&gt;&lt;/span&gt;&lt;span style=&quot;font-family: &amp;quot;JetBrains Mono&amp;quot;, monospace;&quot;&gt;updateProperties&lt;/span&gt;(Long,&amp;nbsp;&lt;span style=&quot;font-family: &amp;quot;JetBrains Mono&amp;quot;, monospace;&quot;&gt;PropertiesDto&lt;/span&gt;):&amp;nbsp;&lt;span style=&quot;font-family: &amp;quot;JetBrains Mono&amp;quot;, monospace;&quot;&gt;Properties&lt;/span&gt;&lt;/p&gt;&lt;p style=&quot;margin: 0px 0px 0px 4px;&quot;&gt;&lt;span style=&quot;font-family: &amp;quot;JetBrains Mono&amp;quot;, monospace;&quot;&gt;&lt;span style=&quot;font-family: Helvetica;&quot;&gt;+&amp;nbsp;&lt;/span&gt;&lt;/span&gt;&lt;span style=&quot;font-family: &amp;quot;JetBrains Mono&amp;quot;, monospace;&quot;&gt;deleteProperties&lt;/span&gt;(&lt;span style=&quot;font-family: &amp;quot;JetBrains Mono&amp;quot;, monospace;&quot;&gt;Long&lt;/span&gt;):&amp;nbsp;&lt;span style=&quot;font-family: &amp;quot;JetBrains Mono&amp;quot;, monospace;&quot;&gt;void&lt;/span&gt;&lt;/p&gt;" style="verticalAlign=top;align=left;overflow=fill;html=1;whiteSpace=wrap;labelBackgroundColor=none;fontColor=default;" parent="1" vertex="1">
          <mxGeometry x="593" y="433" width="335" height="162.5" as="geometry" />
        </mxCell>
        <mxCell id="rJF-KQS_uxcIbHA2Nqqv-45" style="edgeStyle=orthogonalEdgeStyle;rounded=0;orthogonalLoop=1;jettySize=auto;html=1;entryX=0.5;entryY=0;entryDx=0;entryDy=0;exitX=0;exitY=0.25;exitDx=0;exitDy=0;" parent="1" source="rJF-KQS_uxcIbHA2Nqqv-39" target="rJF-KQS_uxcIbHA2Nqqv-31" edge="1">
          <mxGeometry relative="1" as="geometry">
            <Array as="points">
              <mxPoint x="219" y="474" />
            </Array>
          </mxGeometry>
        </mxCell>
        <mxCell id="rJF-KQS_uxcIbHA2Nqqv-15" style="edgeStyle=orthogonalEdgeStyle;rounded=0;orthogonalLoop=1;jettySize=auto;html=1;exitX=1;exitY=0.75;exitDx=0;exitDy=0;" parent="1" source="rJF-KQS_uxcIbHA2Nqqv-12" edge="1">
          <mxGeometry relative="1" as="geometry">
            <mxPoint x="137" y="-449" as="targetPoint" />
          </mxGeometry>
        </mxCell>
        <mxCell id="rJF-KQS_uxcIbHA2Nqqv-17" value="HTTPS resp" style="edgeLabel;html=1;align=center;verticalAlign=middle;resizable=0;points=[];" parent="rJF-KQS_uxcIbHA2Nqqv-15" vertex="1" connectable="0">
          <mxGeometry x="-0.5374" y="-3" relative="1" as="geometry">
            <mxPoint x="16" y="8" as="offset" />
          </mxGeometry>
        </mxCell>
        <mxCell id="rJF-KQS_uxcIbHA2Nqqv-14" style="edgeStyle=orthogonalEdgeStyle;rounded=0;orthogonalLoop=1;jettySize=auto;html=1;entryX=1;entryY=0.25;entryDx=0;entryDy=0;" parent="1" target="rJF-KQS_uxcIbHA2Nqqv-12" edge="1">
          <mxGeometry relative="1" as="geometry">
            <mxPoint x="140" y="-476" as="sourcePoint" />
          </mxGeometry>
        </mxCell>
        <mxCell id="rJF-KQS_uxcIbHA2Nqqv-16" value="HTTPS req (8443)" style="edgeLabel;html=1;align=center;verticalAlign=middle;resizable=0;points=[];" parent="rJF-KQS_uxcIbHA2Nqqv-14" vertex="1" connectable="0">
          <mxGeometry x="0.2105" relative="1" as="geometry">
            <mxPoint x="15" y="-24" as="offset" />
          </mxGeometry>
        </mxCell>
        <mxCell id="47wqLZB-2nM1nMPdiY8--13" style="edgeStyle=orthogonalEdgeStyle;rounded=0;orthogonalLoop=1;jettySize=auto;html=1;dashed=1;entryX=0;entryY=0;entryDx=0;entryDy=35;entryPerimeter=0;" edge="1" parent="1" source="47wqLZB-2nM1nMPdiY8--2" target="47wqLZB-2nM1nMPdiY8--6">
          <mxGeometry relative="1" as="geometry">
            <Array as="points">
              <mxPoint x="-373" y="-39" />
            </Array>
          </mxGeometry>
        </mxCell>
        <mxCell id="47wqLZB-2nM1nMPdiY8--2" value="Auth&lt;div&gt;Controller&lt;/div&gt;" style="shape=module;align=left;spacingLeft=20;align=center;verticalAlign=top;whiteSpace=wrap;html=1;" vertex="1" parent="1">
          <mxGeometry x="-423" y="-151" width="100" height="50" as="geometry" />
        </mxCell>
        <mxCell id="47wqLZB-2nM1nMPdiY8--9" style="edgeStyle=orthogonalEdgeStyle;rounded=0;orthogonalLoop=1;jettySize=auto;html=1;entryX=0;entryY=0;entryDx=87.5;entryDy=150;entryPerimeter=0;" edge="1" parent="1" source="47wqLZB-2nM1nMPdiY8--3" target="rJF-KQS_uxcIbHA2Nqqv-4">
          <mxGeometry relative="1" as="geometry">
            <mxPoint x="144" y="-68.5" as="targetPoint" />
          </mxGeometry>
        </mxCell>
        <mxCell id="47wqLZB-2nM1nMPdiY8--11" style="edgeStyle=orthogonalEdgeStyle;rounded=0;orthogonalLoop=1;jettySize=auto;html=1;dashed=1;" edge="1" parent="1" source="47wqLZB-2nM1nMPdiY8--3" target="47wqLZB-2nM1nMPdiY8--5">
          <mxGeometry relative="1" as="geometry" />
        </mxCell>
        <mxCell id="47wqLZB-2nM1nMPdiY8--3" value="User&lt;br&gt;Repository" style="shape=module;align=left;spacingLeft=20;align=center;verticalAlign=top;whiteSpace=wrap;html=1;" vertex="1" parent="1">
          <mxGeometry x="-117" y="-151" width="100" height="50" as="geometry" />
        </mxCell>
        <mxCell id="47wqLZB-2nM1nMPdiY8--4" value="Auth&lt;div&gt;Service&lt;/div&gt;" style="shape=module;align=left;spacingLeft=20;align=center;verticalAlign=top;whiteSpace=wrap;html=1;" vertex="1" parent="1">
          <mxGeometry x="-271" y="-151" width="100" height="50" as="geometry" />
        </mxCell>
        <mxCell id="47wqLZB-2nM1nMPdiY8--5" value="&lt;div&gt;User&lt;/div&gt;" style="shape=module;align=left;spacingLeft=20;align=center;verticalAlign=top;whiteSpace=wrap;html=1;" vertex="1" parent="1">
          <mxGeometry x="-117" y="-54" width="100" height="50" as="geometry" />
        </mxCell>
        <mxCell id="47wqLZB-2nM1nMPdiY8--6" value="UserDto" style="shape=module;align=left;spacingLeft=20;align=center;verticalAlign=top;whiteSpace=wrap;html=1;" vertex="1" parent="1">
          <mxGeometry x="-354" y="-74" width="100" height="50" as="geometry" />
        </mxCell>
        <mxCell id="47wqLZB-2nM1nMPdiY8--7" style="edgeStyle=orthogonalEdgeStyle;rounded=0;orthogonalLoop=1;jettySize=auto;html=1;entryX=0;entryY=0;entryDx=0;entryDy=35;entryPerimeter=0;" edge="1" parent="1" source="47wqLZB-2nM1nMPdiY8--2" target="47wqLZB-2nM1nMPdiY8--4">
          <mxGeometry relative="1" as="geometry" />
        </mxCell>
        <mxCell id="47wqLZB-2nM1nMPdiY8--8" style="edgeStyle=orthogonalEdgeStyle;rounded=0;orthogonalLoop=1;jettySize=auto;html=1;entryX=0;entryY=0;entryDx=0;entryDy=35;entryPerimeter=0;" edge="1" parent="1" source="47wqLZB-2nM1nMPdiY8--4" target="47wqLZB-2nM1nMPdiY8--3">
          <mxGeometry relative="1" as="geometry" />
        </mxCell>
        <mxCell id="47wqLZB-2nM1nMPdiY8--10" value="Consultas del CRUD&lt;br&gt;(3306)" style="edgeLabel;html=1;align=center;verticalAlign=middle;resizable=0;points=[];" vertex="1" connectable="0" parent="1">
          <mxGeometry x="104" y="-143" as="geometry" />
        </mxCell>
        <mxCell id="47wqLZB-2nM1nMPdiY8--12" style="edgeStyle=orthogonalEdgeStyle;rounded=0;orthogonalLoop=1;jettySize=auto;html=1;entryX=0;entryY=0;entryDx=0;entryDy=35;entryPerimeter=0;dashed=1;" edge="1" parent="1" source="47wqLZB-2nM1nMPdiY8--4" target="47wqLZB-2nM1nMPdiY8--5">
          <mxGeometry relative="1" as="geometry">
            <Array as="points">
              <mxPoint x="-221" y="-18.5" />
            </Array>
          </mxGeometry>
        </mxCell>
        <mxCell id="47wqLZB-2nM1nMPdiY8--16" style="edgeStyle=orthogonalEdgeStyle;rounded=0;orthogonalLoop=1;jettySize=auto;html=1;exitX=0.75;exitY=1;exitDx=0;exitDy=0;entryX=0.5;entryY=0;entryDx=0;entryDy=0;" edge="1" parent="1" source="47wqLZB-2nM1nMPdiY8--14" target="47wqLZB-2nM1nMPdiY8--2">
          <mxGeometry relative="1" as="geometry" />
        </mxCell>
        <mxCell id="47wqLZB-2nM1nMPdiY8--17" style="edgeStyle=orthogonalEdgeStyle;rounded=0;orthogonalLoop=1;jettySize=auto;html=1;entryX=0.5;entryY=0;entryDx=0;entryDy=0;" edge="1" parent="1" source="47wqLZB-2nM1nMPdiY8--14" target="rJF-KQS_uxcIbHA2Nqqv-7">
          <mxGeometry relative="1" as="geometry" />
        </mxCell>
        <mxCell id="47wqLZB-2nM1nMPdiY8--14" value="&lt;pre style=&quot;font-family: &amp;quot;JetBrains Mono&amp;quot;, monospace;&quot;&gt;&lt;div style=&quot;line-height: 30%;&quot;&gt;&lt;pre style=&quot;font-family:&#39;JetBrains Mono&#39;,monospace;font-size:12,0pt;&quot;&gt;&lt;span style=&quot;font-size: 11px;&quot;&gt;WebConfig&lt;/span&gt;&lt;/pre&gt;&lt;/div&gt;&lt;/pre&gt;" style="shape=module;align=left;spacingLeft=20;align=center;verticalAlign=top;whiteSpace=wrap;html=1;labelBackgroundColor=none;fontColor=#000000;" vertex="1" parent="1">
          <mxGeometry x="-404" y="-246" width="92" height="51" as="geometry" />
        </mxCell>
        <mxCell id="47wqLZB-2nM1nMPdiY8--26" style="edgeStyle=orthogonalEdgeStyle;rounded=0;orthogonalLoop=1;jettySize=auto;html=1;entryX=0.5;entryY=0;entryDx=0;entryDy=0;" edge="1" parent="1" source="47wqLZB-2nM1nMPdiY8--18" target="47wqLZB-2nM1nMPdiY8--19">
          <mxGeometry relative="1" as="geometry" />
        </mxCell>
        <mxCell id="47wqLZB-2nM1nMPdiY8--31" style="edgeStyle=orthogonalEdgeStyle;rounded=0;orthogonalLoop=1;jettySize=auto;html=1;exitX=0.5;exitY=0;exitDx=0;exitDy=0;entryX=1;entryY=0.5;entryDx=0;entryDy=0;" edge="1" parent="1" source="47wqLZB-2nM1nMPdiY8--18" target="47wqLZB-2nM1nMPdiY8--20">
          <mxGeometry relative="1" as="geometry">
            <Array as="points">
              <mxPoint x="1143" y="357" />
              <mxPoint x="370" y="357" />
              <mxPoint x="370" y="839" />
            </Array>
          </mxGeometry>
        </mxCell>
        <mxCell id="47wqLZB-2nM1nMPdiY8--18" value="&lt;div style=&quot;&quot;&gt;&lt;pre style=&quot;text-align: center; font-family: &amp;quot;JetBrains Mono&amp;quot;, monospace;&quot;&gt;&lt;/pre&gt;&lt;/div&gt;&lt;p style=&quot;text-align: center; margin: 0px 0px 0px 4px;&quot;&gt;&lt;font style=&quot;font-size: 14px;&quot;&gt;AuthController&lt;/font&gt;&lt;/p&gt;&lt;hr style=&quot;border-style:solid;&quot; size=&quot;1&quot;&gt;&lt;hr size=&quot;1&quot; style=&quot;border-style: solid;&quot;&gt;&lt;p style=&quot;margin: 0px 0px 0px 4px;&quot;&gt;+&amp;nbsp;&lt;span style=&quot;font-family: &amp;quot;JetBrains Mono&amp;quot;, monospace;&quot;&gt;register&lt;/span&gt;(&lt;span style=&quot;font-family: &amp;quot;JetBrains Mono&amp;quot;, monospace;&quot;&gt;UserDto&lt;/span&gt;):&amp;nbsp;&lt;span style=&quot;font-family: &amp;quot;JetBrains Mono&amp;quot;, monospace;&quot;&gt;ResponseEntity&amp;lt;String&amp;gt;&lt;/span&gt;&lt;/p&gt;&lt;p style=&quot;margin: 0px 0px 0px 4px;&quot;&gt;&lt;span style=&quot;font-family: &amp;quot;JetBrains Mono&amp;quot;, monospace;&quot;&gt;&lt;span style=&quot;font-family: Helvetica;&quot;&gt;+&amp;nbsp;&lt;/span&gt;&lt;/span&gt;&lt;span style=&quot;font-family: &amp;quot;JetBrains Mono&amp;quot;, monospace;&quot;&gt;login&lt;/span&gt;&lt;span style=&quot;&quot;&gt;(&lt;/span&gt;&lt;span style=&quot;font-family: &amp;quot;JetBrains Mono&amp;quot;, monospace; background-color: transparent; color: light-dark(rgb(0, 0, 0), rgb(255, 255, 255));&quot;&gt;UserDto&lt;/span&gt;&lt;span style=&quot;background-color: transparent; color: light-dark(rgb(0, 0, 0), rgb(255, 255, 255));&quot;&gt;):&amp;nbsp;&lt;/span&gt;&lt;span style=&quot;font-family: &amp;quot;JetBrains Mono&amp;quot;, monospace; background-color: transparent; color: light-dark(rgb(0, 0, 0), rgb(255, 255, 255));&quot;&gt;ResponseEntity&amp;lt;String&amp;gt;&lt;/span&gt;&lt;/p&gt;" style="verticalAlign=top;align=left;overflow=fill;html=1;whiteSpace=wrap;labelBackgroundColor=none;fontColor=default;" vertex="1" parent="1">
          <mxGeometry x="975" y="469.25" width="335" height="90" as="geometry" />
        </mxCell>
        <mxCell id="47wqLZB-2nM1nMPdiY8--32" style="edgeStyle=orthogonalEdgeStyle;rounded=0;orthogonalLoop=1;jettySize=auto;html=1;exitX=0.25;exitY=1;exitDx=0;exitDy=0;entryX=0.5;entryY=1;entryDx=0;entryDy=0;" edge="1" parent="1" source="47wqLZB-2nM1nMPdiY8--19" target="47wqLZB-2nM1nMPdiY8--20">
          <mxGeometry relative="1" as="geometry">
            <Array as="points">
              <mxPoint x="1019" y="1102" />
              <mxPoint x="217" y="1102" />
            </Array>
          </mxGeometry>
        </mxCell>
        <mxCell id="47wqLZB-2nM1nMPdiY8--19" value="&lt;div&gt;&lt;pre style=&quot;text-align: center; font-family: &amp;quot;JetBrains Mono&amp;quot;, monospace;&quot;&gt;&lt;span style=&quot;&quot;&gt;&lt;font&gt;AuthService&lt;/font&gt;&lt;/span&gt;&lt;/pre&gt;&lt;/div&gt;&lt;hr style=&quot;border-style:solid;&quot; size=&quot;1&quot;&gt;&lt;p style=&quot;margin:0px;margin-left:4px;&quot;&gt;&lt;font&gt;&lt;font&gt;-&amp;nbsp;&lt;/font&gt;&lt;span style=&quot;font-family: &amp;quot;JetBrains Mono&amp;quot;, monospace;&quot;&gt;BCryptPasswordEncoder&lt;/span&gt;&lt;span&gt;&lt;span style=&quot;font-family: &amp;quot;JetBrains Mono&amp;quot;, monospace;&quot;&gt;:&amp;nbsp;&lt;/span&gt;&lt;span style=&quot;font-family: &amp;quot;JetBrains Mono&amp;quot;, monospace;&quot;&gt;passwordEncoder&lt;/span&gt;&lt;/span&gt;&lt;/font&gt;&lt;/p&gt;&lt;hr style=&quot;border-style:solid;&quot; size=&quot;1&quot;&gt;&lt;p style=&quot;margin:0px;margin-left:4px;&quot;&gt;&lt;span style=&quot;&quot;&gt;&lt;font&gt;+&amp;nbsp;&lt;/font&gt;&lt;/span&gt;&lt;span style=&quot;font-family: &amp;quot;JetBrains Mono&amp;quot;, monospace;&quot;&gt;&lt;font style=&quot;color: rgb(0, 0, 0);&quot;&gt;registerUser&lt;/font&gt;&lt;/span&gt;&lt;span style=&quot;background-color: transparent; color: light-dark(rgb(0, 0, 0), rgb(255, 255, 255));&quot;&gt;(&lt;font face=&quot;JetBrains Mono, monospace&quot;&gt;String email, String password&lt;/font&gt;&lt;/span&gt;&lt;span style=&quot;background-color: transparent; color: light-dark(rgb(0, 0, 0), rgb(255, 255, 255));&quot;&gt;):&amp;nbsp;&lt;/span&gt;&lt;span style=&quot;background-color: transparent; color: light-dark(rgb(0, 0, 0), rgb(255, 255, 255)); font-family: &amp;quot;JetBrains Mono&amp;quot;, monospace;&quot;&gt;Optional&amp;lt;UserDto&amp;gt;&lt;/span&gt;&lt;/p&gt;&lt;p style=&quot;margin:0px;margin-left:4px;&quot;&gt;&lt;span style=&quot;&quot;&gt;&lt;font&gt;&lt;span style=&quot;font-family: &amp;quot;JetBrains Mono&amp;quot;, monospace;&quot;&gt;&lt;span style=&quot;font-family: Helvetica;&quot;&gt;+&amp;nbsp;&lt;/span&gt;&lt;/span&gt;&lt;/font&gt;&lt;/span&gt;&lt;span style=&quot;font-family: &amp;quot;JetBrains Mono&amp;quot;, monospace;&quot;&gt;&lt;font style=&quot;color: rgb(1, 3, 4);&quot;&gt;loginUser&lt;/font&gt;&lt;/span&gt;&lt;span style=&quot;background-color: transparent; color: light-dark(rgb(0, 0, 0), rgb(255, 255, 255));&quot;&gt;(&lt;font face=&quot;JetBrains Mono, monospace&quot;&gt;String email, String password&lt;/font&gt;&lt;/span&gt;&lt;span style=&quot;background-color: transparent; color: light-dark(rgb(0, 0, 0), rgb(255, 255, 255));&quot;&gt;):&amp;nbsp;&lt;/span&gt;&lt;span style=&quot;background-color: transparent; color: light-dark(rgb(0, 0, 0), rgb(255, 255, 255)); font-family: &amp;quot;JetBrains Mono&amp;quot;, monospace;&quot;&gt;Optional&amp;lt;UserDto&amp;gt;&lt;/span&gt;&lt;/p&gt;" style="verticalAlign=top;align=left;overflow=fill;html=1;whiteSpace=wrap;labelBackgroundColor=none;fontColor=default;" vertex="1" parent="1">
          <mxGeometry x="904" y="838" width="460" height="118" as="geometry" />
        </mxCell>
        <mxCell id="47wqLZB-2nM1nMPdiY8--33" style="edgeStyle=orthogonalEdgeStyle;rounded=0;orthogonalLoop=1;jettySize=auto;html=1;exitX=0;exitY=0.5;exitDx=0;exitDy=0;" edge="1" parent="1" source="47wqLZB-2nM1nMPdiY8--20" target="47wqLZB-2nM1nMPdiY8--21">
          <mxGeometry relative="1" as="geometry" />
        </mxCell>
        <mxCell id="47wqLZB-2nM1nMPdiY8--20" value="&lt;div style=&quot;&quot;&gt;&lt;pre style=&quot;text-align: center; font-family: &amp;quot;JetBrains Mono&amp;quot;, monospace;&quot;&gt;UserDto&lt;/pre&gt;&lt;/div&gt;&lt;hr style=&quot;border-style:solid;&quot; size=&quot;1&quot;&gt;&lt;p style=&quot;margin:0px;margin-left:4px;&quot;&gt;&lt;span style=&quot;background-color: transparent; color: light-dark(rgb(0, 0, 0), rgb(237, 237, 237));&quot;&gt;-&amp;nbsp;&lt;/span&gt;&lt;span style=&quot;font-family: &amp;quot;JetBrains Mono&amp;quot;, monospace;&quot;&gt;email&lt;/span&gt;&lt;span style=&quot;background-color: transparent; color: light-dark(rgb(0, 0, 0), rgb(237, 237, 237));&quot;&gt;:&amp;nbsp;&lt;/span&gt;&lt;span style=&quot;font-family: &amp;quot;JetBrains Mono&amp;quot;, monospace; background-color: transparent; color: light-dark(rgb(0, 0, 0), rgb(237, 237, 237));&quot;&gt;String&lt;/span&gt;&lt;/p&gt;&lt;p style=&quot;margin: 0px 0px 0px 4px;&quot;&gt;- &lt;font face=&quot;JetBrains Mono, monospace&quot;&gt;password&lt;/font&gt;:&amp;nbsp;&lt;span style=&quot;font-family: &amp;quot;JetBrains Mono&amp;quot;, monospace; background-color: transparent; color: light-dark(rgb(0, 0, 0), rgb(237, 237, 237));&quot;&gt;String&lt;br&gt;&lt;/span&gt;&lt;/p&gt;&lt;hr style=&quot;border-style:solid;&quot; size=&quot;1&quot;&gt;&lt;p style=&quot;margin:0px;margin-left:4px;&quot;&gt;&lt;br&gt;&lt;/p&gt;" style="verticalAlign=top;align=left;overflow=fill;html=1;whiteSpace=wrap;labelBackgroundColor=none;labelBorderColor=none;fontColor=#000000;" vertex="1" parent="1">
          <mxGeometry x="147" y="793.5" width="140" height="91" as="geometry" />
        </mxCell>
        <mxCell id="47wqLZB-2nM1nMPdiY8--21" value="&lt;div style=&quot;&quot;&gt;&lt;pre style=&quot;text-align: center; font-family: &amp;quot;JetBrains Mono&amp;quot;, monospace;&quot;&gt;User&lt;/pre&gt;&lt;/div&gt;&lt;hr style=&quot;border-style:solid;&quot; size=&quot;1&quot;&gt;&lt;p style=&quot;margin:0px;margin-left:4px;&quot;&gt;- id:&amp;nbsp;&lt;span style=&quot;font-family: &amp;quot;JetBrains Mono&amp;quot;, monospace;&quot;&gt;Long&lt;/span&gt;&lt;/p&gt;&lt;p style=&quot;margin: 0px 0px 0px 4px;&quot;&gt;&lt;span style=&quot;background-color: transparent; color: light-dark(rgb(0, 0, 0), rgb(237, 237, 237));&quot;&gt;-&amp;nbsp;&lt;/span&gt;&lt;span style=&quot;font-family: &amp;quot;JetBrains Mono&amp;quot;, monospace;&quot;&gt;email&lt;/span&gt;&lt;span style=&quot;background-color: transparent; color: light-dark(rgb(0, 0, 0), rgb(237, 237, 237));&quot;&gt;:&amp;nbsp;&lt;/span&gt;&lt;span style=&quot;font-family: &amp;quot;JetBrains Mono&amp;quot;, monospace; background-color: transparent; color: light-dark(rgb(0, 0, 0), rgb(237, 237, 237));&quot;&gt;String&lt;/span&gt;&lt;/p&gt;&lt;p style=&quot;margin: 0px 0px 0px 4px;&quot;&gt;-&amp;nbsp;&lt;span style=&quot;font-family: &amp;quot;JetBrains Mono&amp;quot;, monospace;&quot;&gt;password&lt;/span&gt;:&amp;nbsp;&lt;span style=&quot;font-family: &amp;quot;JetBrains Mono&amp;quot;, monospace; background-color: transparent; color: light-dark(rgb(0, 0, 0), rgb(237, 237, 237));&quot;&gt;String&lt;br&gt;&lt;/span&gt;&lt;/p&gt;&lt;hr style=&quot;border-style:solid;&quot; size=&quot;1&quot;&gt;&lt;p style=&quot;margin:0px;margin-left:4px;&quot;&gt;&lt;br&gt;&lt;/p&gt;" style="verticalAlign=top;align=left;overflow=fill;html=1;whiteSpace=wrap;labelBackgroundColor=none;labelBorderColor=none;fontColor=#000000;" vertex="1" parent="1">
          <mxGeometry x="-93" y="805.5" width="160" height="114" as="geometry" />
        </mxCell>
        <mxCell id="47wqLZB-2nM1nMPdiY8--30" style="edgeStyle=orthogonalEdgeStyle;rounded=0;orthogonalLoop=1;jettySize=auto;html=1;exitX=0.5;exitY=1;exitDx=0;exitDy=0;entryX=0.5;entryY=1;entryDx=0;entryDy=0;dashed=1;" edge="1" parent="1" source="47wqLZB-2nM1nMPdiY8--22" target="47wqLZB-2nM1nMPdiY8--21">
          <mxGeometry relative="1" as="geometry">
            <Array as="points">
              <mxPoint x="1088" y="1370" />
              <mxPoint x="-13" y="1370" />
            </Array>
          </mxGeometry>
        </mxCell>
        <mxCell id="47wqLZB-2nM1nMPdiY8--22" value="&lt;p style=&quot;margin:0px;margin-top:4px;text-align:center;&quot;&gt;&lt;i&gt;&amp;lt;&amp;lt;Interface&amp;gt;&amp;gt;&lt;/i&gt;&lt;br&gt;&lt;/p&gt;&lt;div style=&quot;&quot;&gt;&lt;pre style=&quot;text-align: center; font-family: &amp;quot;JetBrains Mono&amp;quot;, monospace;&quot;&gt;UserRepository&lt;/pre&gt;&lt;/div&gt;&lt;hr style=&quot;border-style:solid;&quot; size=&quot;1&quot;&gt;&lt;p style=&quot;margin:0px;margin-left:4px;&quot;&gt;&lt;font&gt;&lt;br&gt;&lt;/font&gt;&lt;/p&gt;&lt;hr style=&quot;border-style:solid;&quot; size=&quot;1&quot;&gt;&lt;div&gt;&lt;pre style=&quot;&quot;&gt;&lt;font&gt;&lt;span style=&quot;font-family: &amp;quot;JetBrains Mono&amp;quot;, monospace; color: rgb(86, 168, 245);&quot;&gt;&lt;font style=&quot;color: rgb(0, 0, 0);&quot;&gt;findByEmail(String email):&lt;/font&gt;&lt;/span&gt;&lt;span style=&quot;font-family: &amp;quot;JetBrains Mono&amp;quot;, monospace; color: rgb(86, 168, 245);&quot;&gt; &lt;/span&gt;&lt;font face=&quot;JetBrains Mono, monospace&quot;&gt;Optional&amp;lt;User&amp;gt;&lt;/font&gt;&lt;/font&gt;&lt;/pre&gt;&lt;/div&gt;" style="verticalAlign=top;align=left;overflow=fill;html=1;whiteSpace=wrap;labelBackgroundColor=none;fontColor=default;" vertex="1" parent="1">
          <mxGeometry x="935.5" y="1177" width="304" height="123" as="geometry" />
        </mxCell>
        <mxCell id="47wqLZB-2nM1nMPdiY8--27" value="&lt;div style=&quot;&quot;&gt;&lt;pre style=&quot;font-family:&#39;JetBrains Mono&#39;,monospace;font-size:9,8pt;&quot;&gt;&lt;font style=&quot;font-size: 9px;&quot;&gt;AuthService &lt;span style=&quot;&quot;&gt;authSerrvice&lt;/span&gt;&lt;/font&gt;&lt;/pre&gt;&lt;/div&gt;" style="edgeLabel;html=1;align=center;verticalAlign=middle;resizable=0;points=[];labelBackgroundColor=none;fontColor=default;" vertex="1" connectable="0" parent="1">
          <mxGeometry x="1206" y="722" as="geometry" />
        </mxCell>
        <mxCell id="47wqLZB-2nM1nMPdiY8--28" style="edgeStyle=orthogonalEdgeStyle;rounded=0;orthogonalLoop=1;jettySize=auto;html=1;exitX=0.5;exitY=1;exitDx=0;exitDy=0;entryX=0.5;entryY=0;entryDx=0;entryDy=0;" edge="1" parent="1" source="47wqLZB-2nM1nMPdiY8--19" target="47wqLZB-2nM1nMPdiY8--22">
          <mxGeometry relative="1" as="geometry">
            <Array as="points">
              <mxPoint x="1134" y="1084" />
              <mxPoint x="1088" y="1084" />
            </Array>
            <mxPoint x="1149" y="1073" as="sourcePoint" />
            <mxPoint x="1115" y="1255" as="targetPoint" />
          </mxGeometry>
        </mxCell>
        <mxCell id="47wqLZB-2nM1nMPdiY8--29" value="&lt;div&gt;&lt;pre style=&quot;font-family:&#39;JetBrains Mono&#39;,monospace;font-size:9,8pt;&quot;&gt;UserRepository userRepository&lt;/pre&gt;&lt;/div&gt;" style="edgeLabel;html=1;align=center;verticalAlign=middle;resizable=0;points=[];labelBackgroundColor=none;fontColor=default;fontSize=9;" vertex="1" connectable="0" parent="47wqLZB-2nM1nMPdiY8--28">
          <mxGeometry x="0.1409" relative="1" as="geometry">
            <mxPoint x="62" y="15" as="offset" />
          </mxGeometry>
        </mxCell>
      </root>
    </mxGraphModel>
  </diagram>
</mxfile>
